<?xml version="1.0" encoding="UTF-8"?>
<svg width="600" height="400" viewBox="0 0 600 400" fill="none" xmlns="http://www.w3.org/2000/svg">
  <!-- Workspace Desk -->
  <path d="M50 300h500v20H50z" fill="#2D3142"/>
  <path d="M100 320h40v60h-40z M460 320h40v60h-40z" fill="#2D3142"/>
  
  <!-- Laptop -->
  <g transform="translate(200 200)">
    <path d="M0 0h200v120H0z" fill="#F8F9FA" stroke="#2D3142" stroke-width="2"/>
    <path d="M-20 120h240v10H-20z" fill="#2D3142"/>
    <!-- Screen Content -->
    <g transform="translate(20 20)">
      <rect x="0" y="0" width="160" height="80" rx="4" fill="#FF6B3D" opacity="0.1"/>
      <path d="M10 20h60v4H10z M10 30h40v4H10z M10 50h80v4H10z M10 60h70v4H10z" fill="#FF6B3D"/>
      <circle cx="120" cy="40" r="20" stroke="#FF6B3D" stroke-width="2" fill="none"/>
      <path d="M110 40l5 5 15-15" stroke="#FF6B3D" stroke-width="2"/>
    </g>
  </g>
  
  <!-- Floating Elements -->
  <g>
    <!-- Data Visualization Elements -->
    <g transform="translate(450 100)">
      <rect x="0" y="0" width="100" height="60" rx="8" fill="#F8F9FA" stroke="#FF6B3D" stroke-width="2"/>
      <path d="M20 20h20v30H20z M50 30h20v20H50z M80 10h20v40H80z" fill="#FF6B3D" opacity="0.2"/>
    </g>
    
    <!-- Floating Card -->
    <g transform="translate(50 150)">
      <rect x="0" y="0" width="120" height="80" rx="8" fill="#F8F9FA" stroke="#2D3142" stroke-width="2"/>
      <circle cx="30" cy="30" r="15" fill="#FF6B3D" opacity="0.2"/>
      <path d="M20 60h80v4H20z M20 70h60v4H20z" fill="#2D3142" opacity="0.1"/>
    </g>
    
    <!-- Decorative Elements -->
    <circle cx="450" cy="50" r="5" fill="#FF6B3D"/>
    <circle cx="100" cy="80" r="3" fill="#FF6B3D"/>
    <path d="M500 150l10 10-10 10-10-10z" fill="#FF6B3D" opacity="0.2"/>
  </g>
  
  <!-- Connection Lines -->
  <g stroke="#FF6B3D" stroke-width="2" opacity="0.2">
    <path d="M150 100c50 0 0 100 50 100"/>
    <path d="M450 100c-50 0 0 100-50 100"/>
    <path d="M300 50c0 50-100 0-100 50"/>
  </g>
</svg> 